<?xml version="1.0" standalone="no"?>
<!DOCTYPE svg PUBLIC "-//W3C//DTD SVG 20010904//EN"
 "http://www.w3.org/TR/2001/REC-SVG-20010904/DTD/svg10.dtd">
<svg version="1.0" xmlns="http://www.w3.org/2000/svg"
 width="400.000000pt" height="215.000000pt" viewBox="0 0 400.000000 215.000000"
 preserveAspectRatio="xMidYMid meet">
<metadata>
Created by potrace 1.15, written by Peter Selinger 2001-2017
</metadata>
<g transform="translate(0.000000,215.000000) scale(0.100000,-0.100000)"
fill="#000000" stroke="none">
<path d="M790 1540 c-14 -11 -28 -20 -31 -20 -4 0 -57 -30 -118 -66 l-111 -65
0 -185 c0 -113 4 -184 10 -184 5 0 33 -15 62 -33 51 -32 109 -66 190 -110 42
-23 44 -22 143 39 28 17 57 34 65 37 8 4 33 19 55 32 22 14 48 28 58 32 28 9
19 27 -24 47 -46 23 -40 25 -186 -61 l-73 -42 -77 45 c-43 24 -89 51 -103 59
-24 13 -25 17 -28 141 -2 113 -1 129 15 138 42 26 150 88 171 98 16 8 29 9 40
2 9 -6 53 -30 97 -54 44 -23 85 -47 91 -51 11 -9 94 29 94 43 0 6 -166 108
-176 108 -3 0 -30 16 -60 35 -63 40 -70 41 -104 15z"/>
<path d="M1352 1537 c-12 -12 -55 -81 -97 -152 -105 -180 -105 -179 42 -417
40 -66 60 -89 84 -97 41 -14 316 -14 357 0 16 6 41 27 54 47 33 50 88 142 88
148 0 2 14 27 32 55 49 81 44 109 -47 267 -43 73 -88 141 -102 152 -24 18 -41
20 -208 20 -176 0 -182 -1 -203 -23z m339 -69 l-30 -53 -99 -3 -99 -3 -31 51
c-18 28 -32 53 -32 56 0 2 72 4 161 4 l161 0 -31 -52z m-281 -25 l27 -47 -31
-51 c-18 -27 -40 -67 -51 -87 -19 -37 -21 -38 -77 -38 -32 0 -58 3 -58 7 0 12
155 272 159 267 2 -2 16 -25 31 -51z m370 5 c0 -3 25 -50 55 -102 78 -135 77
-126 9 -126 l-59 0 -40 76 c-22 41 -46 80 -52 86 -12 9 0 38 45 112 5 8 41
-31 42 -46z m-131 -68 c20 -10 88 -119 97 -155 8 -32 -70 -171 -100 -179 -28
-8 -160 -8 -180 0 -18 7 -96 143 -96 167 0 22 79 155 98 167 22 12 158 13 181
0z m-263 -267 l51 -86 -30 -53 -30 -52 -54 90 c-29 50 -53 92 -53 95 0 2 -11
21 -25 41 -14 20 -25 40 -25 44 0 5 26 8 58 8 l58 0 50 -87z m514 82 c0 -3
-11 -22 -23 -43 -13 -20 -43 -73 -67 -117 -66 -123 -63 -122 -103 -51 l-24 43
51 86 51 86 58 1 c31 0 57 -2 57 -5z m-227 -202 c3 -10 15 -33 27 -50 l22 -33
-162 0 c-126 0 -160 3 -154 13 4 6 18 29 31 50 l23 37 104 0 c90 0 104 -2 109
-17z"/>
<path d="M2755 1531 c-17 -10 -43 -33 -58 -51 l-28 -33 3 -231 c3 -226 4 -232
27 -265 45 -63 79 -71 319 -71 l212 0 0 65 0 65 -202 0 c-112 0 -209 4 -217 9
-9 6 -16 32 -19 70 l-4 61 221 0 221 0 0 65 0 65 -220 0 -220 0 0 44 c0 25 4
56 10 70 l9 26 208 2 208 3 3 63 3 62 -223 0 c-200 0 -226 -2 -253 -19z"/>
<path d="M2068 1515 c-10 -13 -18 -26 -18 -29 0 -3 30 -6 68 -6 79 0 131 -13
164 -40 l23 -19 -106 -1 c-105 0 -105 0 -127 -30 -12 -16 -22 -32 -22 -35 0
-3 61 -5 135 -5 153 0 163 -6 101 -65 -38 -36 -121 -57 -183 -48 -32 5 -33 4
-33 -32 0 -34 10 -49 92 -139 193 -211 175 -196 235 -196 62 0 66 11 25 55
-94 100 -220 251 -216 257 3 4 19 8 35 8 69 0 158 65 181 132 8 23 16 27 54
30 38 3 48 8 65 36 l21 32 -69 0 c-67 0 -69 1 -80 30 l-11 30 57 0 c52 0 59 3
79 30 l23 30 -238 0 -238 -1 -17 -24z"/>
</g>
</svg>
