<?xml version="1.0" standalone="no"?>
<!DOCTYPE svg PUBLIC "-//W3C//DTD SVG 20010904//EN"
 "http://www.w3.org/TR/2001/REC-SVG-20010904/DTD/svg10.dtd">
<svg version="1.0" xmlns="http://www.w3.org/2000/svg"
 width="400.000000pt" height="176.000000pt" viewBox="0 0 400.000000 176.000000"
 preserveAspectRatio="xMidYMid meet">
<metadata>
Created by potrace 1.15, written by Peter Selinger 2001-2017
</metadata>
<g transform="translate(0.000000,176.000000) scale(0.100000,-0.100000)"
fill="#000000" stroke="none">
<path d="M1373 1323 c-55 -60 -93 -167 -93 -267 0 -96 39 -215 87 -264 25 -26
13 -23 -29 7 -63 43 -114 100 -142 156 -23 46 -25 48 -25 21 -2 -76 110 -216
211 -264 70 -34 166 -55 222 -48 l51 6 -30 -18 c-57 -34 -142 -54 -211 -50
-35 2 -64 2 -64 0 0 -1 16 -10 35 -18 95 -40 277 7 381 98 21 18 55 60 76 93
l38 60 0 -47 c0 -54 -30 -138 -66 -185 -34 -45 -6 -45 32 0 40 47 72 123 84
202 10 57 9 83 -4 142 -17 81 -40 137 -69 171 -32 35 -3 26 51 -17 53 -42 87
-84 114 -141 l16 -35 1 32 c2 74 -91 191 -196 246 -74 38 -182 63 -239 54 -44
-7 -43 -2 4 21 61 31 128 45 192 40 33 -2 60 -1 60 3 0 17 -88 31 -159 26
-153 -12 -314 -130 -362 -267 -6 -17 -7 0 -4 49 5 75 27 137 65 191 27 38 8
39 -27 3z m288 -159 c-12 -15 -21 -33 -21 -41 0 -29 -32 -83 -49 -83 -19 0
-47 28 -76 73 -30 47 9 75 108 76 l58 1 -20 -26z m109 -44 c22 -22 73 -100 68
-105 -2 -2 -39 -5 -83 -6 l-80 -4 -3 38 c-2 26 3 46 18 67 25 35 52 38 80 10z
m-273 -64 c54 -68 38 -96 -55 -96 -44 0 -51 3 -56 24 -6 24 12 79 42 124 15
23 17 23 27 7 5 -9 25 -36 42 -59z m321 -98 c23 -23 14 -61 -32 -147 l-18 -35
-15 35 c-8 19 -28 49 -46 67 -25 26 -29 36 -21 50 24 37 106 56 132 30z m-272
-62 c8 -32 -29 -116 -51 -116 -29 0 -52 18 -84 66 -17 26 -31 51 -31 55 0 4
24 10 53 12 28 2 64 4 79 5 22 2 29 -3 34 -22z m104 -29 c27 -22 60 -69 60
-87 0 -26 -60 -50 -126 -50 l-57 0 20 23 c11 12 24 36 27 52 9 39 33 75 49 75
6 0 19 -6 27 -13z"/>
<path d="M635 1276 c-41 -18 -83 -69 -90 -109 -4 -18 -5 -121 -3 -229 3 -215
5 -223 72 -272 26 -20 43 -21 272 -24 l244 -3 0 60 0 61 -207 0 c-148 0 -215
4 -233 13 l-25 13 0 179 0 179 25 13 c18 9 85 13 233 13 l207 0 0 60 0 60
-232 0 c-171 -1 -241 -4 -263 -14z"/>
<path d="M2140 1270 c-19 -19 -20 -33 -20 -325 l0 -305 65 0 65 0 0 265 0 265
189 0 c218 0 217 0 208 -81 -13 -104 -43 -119 -239 -119 l-128 0 0 -60 0 -60
45 0 c42 0 50 -5 165 -105 l121 -105 94 0 c52 0 95 1 95 3 0 2 -52 48 -116
103 l-115 99 48 15 c62 19 127 82 142 135 6 22 11 72 11 110 0 83 -20 129 -69
162 -33 22 -41 23 -287 23 -241 0 -255 -1 -274 -20z"/>
<path d="M2897 1272 c-15 -16 -17 -50 -17 -266 0 -279 4 -298 69 -338 34 -22
47 -23 274 -26 l237 -3 0 60 0 60 -220 3 c-183 2 -222 6 -230 18 -5 8 -10 99
-10 203 l0 187 230 0 230 0 0 60 0 60 -273 0 c-253 0 -275 -1 -290 -18z"/>
<path d="M3040 965 l0 -65 185 0 185 0 0 65 0 65 -185 0 -185 0 0 -65z"/>
</g>
</svg>
