<?xml version="1.0" standalone="no"?>
<!DOCTYPE svg PUBLIC "-//W3C//DTD SVG 20010904//EN"
 "http://www.w3.org/TR/2001/REC-SVG-20010904/DTD/svg10.dtd">
<svg version="1.0" xmlns="http://www.w3.org/2000/svg"
 width="668.000000pt" height="556.000000pt" viewBox="0 0 668.000000 556.000000"
 preserveAspectRatio="xMidYMid meet">

<g transform="translate(0.000000,556.000000) scale(0.100000,-0.100000)"
fill="#000000" stroke="none">
<path d="M3605 5054 c-99 -19 -181 -63 -249 -132 l-59 -60 -76 -4 c-129 -8
-210 -60 -258 -165 -61 -132 -29 -280 87 -416 l50 -59 0 -216 0 -217 -30 -62
c-38 -77 -54 -161 -46 -235 l7 -57 -43 -11 c-59 -16 -101 -51 -127 -104 -62
-134 30 -286 173 -286 35 0 48 -5 56 -19 5 -11 10 -75 10 -143 0 -91 5 -140
19 -190 51 -177 173 -315 365 -413 l81 -41 3 -281 c2 -217 -1 -282 -10 -290
-7 -5 -51 -15 -98 -22 -278 -41 -510 -129 -725 -279 -119 -82 -180 -136 -397
-350 -108 -107 -201 -191 -207 -188 -5 4 -53 140 -106 304 -53 163 -119 367
-147 452 -28 85 -63 195 -79 244 -16 49 -33 115 -38 146 -9 54 -7 63 24 137
45 103 75 246 75 353 0 62 7 111 27 180 35 126 36 161 3 177 -19 9 -36 9 -65
2 -49 -13 -75 -33 -109 -87 -14 -23 -30 -42 -35 -42 -10 0 -27 91 -42 215 -29
260 -39 302 -76 337 -35 32 -89 30 -119 -6 -20 -22 -24 -38 -24 -92 0 -41 -4
-63 -10 -59 -6 3 -10 14 -10 24 0 37 -33 125 -55 147 -33 33 -87 33 -120 -1
-30 -29 -33 -80 -11 -177 8 -35 17 -88 21 -118 6 -49 5 -53 -7 -35 -8 11 -29
57 -47 103 -44 110 -62 132 -110 132 -48 0 -81 -33 -81 -79 0 -18 22 -103 50
-189 27 -85 48 -158 45 -160 -2 -3 -32 21 -67 53 -91 85 -149 103 -192 59 -34
-33 -20 -66 111 -260 117 -174 129 -196 150 -278 44 -169 128 -295 240 -358
29 -16 53 -32 53 -34 0 -3 31 -127 69 -277 37 -150 80 -324 95 -387 40 -171
52 -222 86 -365 57 -240 69 -290 90 -385 52 -229 78 -279 178 -337 52 -31 146
-40 288 -28 l87 7 241 162 c223 149 340 226 358 234 4 2 9 -104 10 -235 l3
-238 975 0 975 0 3 198 c1 108 6 197 11 197 8 0 49 -195 67 -320 13 -85 -3
-80 245 -80 194 0 220 2 226 16 10 27 -16 289 -43 420 -66 335 -197 588 -409
793 -111 106 -189 163 -310 224 -90 45 -231 92 -337 112 -45 9 -93 18 -106 21
l-22 4 2 307 3 307 65 37 c139 78 267 230 311 368 16 50 23 101 26 211 4 91
10 148 17 152 6 4 31 8 55 8 56 0 113 32 148 83 41 59 45 150 9 212 -29 49
-88 95 -123 95 -12 0 -25 5 -28 10 -4 6 -8 54 -9 108 -2 85 -6 105 -34 166
l-32 69 0 226 c0 145 -5 248 -13 288 l-13 61 60 55 c87 77 111 129 111 238 0
79 -3 91 -39 163 -28 58 -60 101 -122 164 l-83 86 -28 -26 c-41 -37 -67 -49
-141 -59 -85 -12 -197 3 -311 42 -90 31 -231 60 -285 58 -17 0 -62 -7 -101
-15z m876 -751 c11 -12 15 -68 17 -235 2 -120 0 -218 -5 -218 -4 0 -26 12 -48
27 -38 26 -38 27 -17 36 26 12 39 53 25 76 -19 32 -113 73 -177 78 -113 10
-238 -44 -222 -95 13 -40 39 -45 112 -21 70 23 120 22 170 -2 39 -20 45 -42 7
-32 -56 15 -175 7 -236 -16 -103 -40 -201 -152 -241 -273 -3 -12 -16 -18 -34
-18 -27 0 -31 6 -51 60 -62 169 -252 283 -424 253 -70 -12 -79 6 -17 31 54 21
98 20 165 -5 63 -23 92 -18 101 17 9 37 -1 53 -53 76 -71 32 -211 32 -270 0
-50 -26 -83 -59 -83 -83 0 -10 12 -27 27 -38 14 -12 24 -23 22 -24 -38 -30
-71 -47 -79 -42 -15 9 -13 318 2 333 7 7 27 12 45 12 47 0 127 33 168 69 20
17 40 31 46 31 6 0 43 -15 82 -34 134 -64 310 -81 529 -50 113 15 364 75 396
94 23 13 28 12 43 -7z m-935 -472 c63 -27 124 -89 159 -160 90 -179 -13 -401
-210 -457 -145 -40 -300 33 -377 178 -19 36 -22 58 -22 138 0 80 3 102 23 140
27 53 94 125 136 147 90 48 200 53 291 14z m840 -2 c62 -30 123 -90 155 -154
20 -42 24 -64 24 -145 0 -84 -3 -101 -27 -145 -61 -115 -164 -179 -288 -180
-91 0 -163 30 -227 95 -70 71 -88 118 -88 235 0 108 8 132 68 208 85 109 253
147 383 86z m-512 -408 c21 -71 42 -108 94 -164 56 -59 118 -92 212 -113 64
-15 76 -15 142 0 40 9 93 28 117 41 23 14 47 25 53 25 6 0 8 -89 6 -242 -5
-268 -8 -285 -76 -403 -123 -211 -424 -345 -687 -305 -264 40 -465 193 -547
418 -18 50 -22 86 -26 285 -2 133 0 233 5 238 6 6 32 -2 69 -20 113 -56 221
-60 331 -14 96 40 179 128 214 230 27 74 26 73 54 73 20 0 27 -8 39 -49z
m-799 -91 c21 -41 19 -47 -20 -54 -27 -5 -36 -13 -41 -33 -9 -33 6 -57 37 -61
34 -5 49 -20 49 -48 0 -35 -35 -49 -86 -35 -70 20 -104 63 -104 131 0 36 6 53
30 82 17 20 40 39 53 41 54 10 66 7 82 -23z m1637 -8 c31 -31 49 -84 41 -125
-12 -63 -90 -112 -158 -99 -23 4 -26 9 -23 41 3 31 7 36 31 39 37 4 63 43 47
72 -6 11 -24 23 -41 27 -39 8 -43 16 -24 54 16 29 20 31 57 26 27 -4 51 -16
70 -35z m-3394 -175 c15 -57 57 -235 77 -330 18 -82 39 -109 76 -100 40 11 42
35 29 250 -14 214 -9 252 24 201 15 -23 23 -75 56 -343 7 -55 26 -138 42 -185
46 -132 46 -129 -7 -191 -57 -67 -107 -167 -109 -216 -1 -34 2 -38 26 -41 23
-3 28 1 34 25 14 58 52 130 99 188 52 64 74 111 75 162 0 50 39 142 66 160 14
8 27 13 30 10 3 -3 -6 -52 -20 -110 -18 -72 -26 -132 -26 -193 0 -123 -55
-331 -96 -365 -13 -10 -14 -25 -9 -68 9 -80 16 -103 127 -446 185 -572 347
-1070 384 -1181 30 -88 31 -131 2 -161 -20 -21 -30 -23 -122 -23 -170 0 -226
45 -265 212 -12 51 -33 140 -47 198 -14 58 -29 123 -34 145 -8 34 -35 149 -80
340 -5 22 -16 72 -25 110 -25 109 -175 706 -185 740 -7 22 -22 36 -59 52 -118
55 -191 166 -237 362 -13 54 -34 92 -135 238 -65 95 -119 178 -119 183 0 6 5
10 11 10 17 0 121 -104 164 -165 43 -59 70 -74 104 -55 33 17 27 58 -44 279
-36 112 -65 213 -65 223 0 52 32 -6 106 -192 72 -180 99 -230 125 -230 4 0 20
10 35 23 l26 23 -43 240 c-23 133 -40 248 -36 257 10 27 34 8 45 -36z m2772
-1267 c6 -321 5 -336 -13 -357 -31 -35 -111 -57 -207 -57 -95 0 -150 13 -201
47 -32 21 -34 27 -34 75 1 29 2 178 3 333 l2 281 73 -8 c94 -12 207 -8 282 10
33 7 67 13 75 12 13 -1 16 -48 20 -336z"/>
<path d="M3363 3595 c-27 -19 -38 -67 -22 -97 42 -79 149 -55 149 33 0 65 -73
102 -127 64z"/>
<path d="M4192 3587 c-30 -32 -29 -81 3 -112 72 -73 178 28 114 109 -27 35
-86 36 -117 3z"/>
<path d="M3807 3202 c-22 -24 -37 -67 -37 -107 0 -56 57 -87 127 -69 49 13 38
62 -15 66 -40 3 -40 4 -26 77 5 23 2 36 -7 42 -20 12 -24 11 -42 -9z"/>
<path d="M3622 2713 c-34 -60 141 -151 255 -133 90 15 197 83 191 124 -5 33
-31 30 -98 -13 -102 -66 -191 -63 -275 10 -37 33 -60 37 -73 12z"/>
</g>
</svg>
